<svg xmlns="http://www.w3.org/2000/svg" width="192mm" height="192mm" viewBox="0 0 192 192"><defs><symbol id="motif-recraft-9b63c15fc649-s0" overflow="visible"><g transform="translate(-0.5 -0.5) scale(0.01)"><path fill="currentColor" d="     M 62 16 Q 73 16 74 27 L 96 31 L 97 34 L 75 38     Q 87 53 70 52 Q 61 51 58 45 Q 56 58 55 68     Q 55 85 36 86 Q 14 86 12 64 Q 10 46 30 42     Q 45 39 50 33 Q 53 22 55 19 Q 57 16 62 16 Z" />
  <path fill="none" d="     M 21 56 Q 33 49 45 58 Q 39 71 26 71 Q 18 67 21 56 Z" />
  <path fill="none" d="     M 60 21 L 95 31 L 96 33.5 L 75 37 Q 64 34 59.5 29 Z" />
  <path fill="none" d="     M 75 37.5 Q 87 53 70 51.5 Q 61.5 50.5 58.5 44.5 Q 66 40 75 37.5 Z" />
  <circle cx="64.5" cy="26" r="2.4" fill="none" />
</g></symbol><symbol id="motif-recraft-9b63c15fc649-s1" overflow="visible"><g transform="translate(-0.5 -0.5) scale(0.01)"><path fill="none" d="     M 62 16 Q 73 16 74 27 L 96 31 L 97 34 L 75 38     Q 87 53 70 52 Q 61 51 58 45 Q 56 58 55 68     Q 55 85 36 86 Q 14 86 12 64 Q 10 46 30 42     Q 45 39 50 33 Q 53 22 55 19 Q 57 16 62 16 Z" />
  <path fill="currentColor" d="     M 21 56 Q 33 49 45 58 Q 39 71 26 71 Q 18 67 21 56 Z" />
  <path fill="none" d="     M 60 21 L 95 31 L 96 33.5 L 75 37 Q 64 34 59.5 29 Z" />
  <path fill="none" d="     M 75 37.5 Q 87 53 70 51.5 Q 61.5 50.5 58.5 44.5 Q 66 40 75 37.5 Z" />
  <circle cx="64.5" cy="26" r="2.4" fill="none" />
</g></symbol><symbol id="motif-recraft-9b63c15fc649-s2" overflow="visible"><g transform="translate(-0.5 -0.5) scale(0.01)"><path fill="none" d="     M 62 16 Q 73 16 74 27 L 96 31 L 97 34 L 75 38     Q 87 53 70 52 Q 61 51 58 45 Q 56 58 55 68     Q 55 85 36 86 Q 14 86 12 64 Q 10 46 30 42     Q 45 39 50 33 Q 53 22 55 19 Q 57 16 62 16 Z" />
  <path fill="none" d="     M 21 56 Q 33 49 45 58 Q 39 71 26 71 Q 18 67 21 56 Z" />
  <path fill="currentColor" d="     M 60 21 L 95 31 L 96 33.5 L 75 37 Q 64 34 59.5 29 Z" />
  <path fill="none" d="     M 75 37.5 Q 87 53 70 51.5 Q 61.5 50.5 58.5 44.5 Q 66 40 75 37.5 Z" />
  <circle cx="64.5" cy="26" r="2.4" fill="none" />
</g></symbol><symbol id="motif-recraft-9b63c15fc649-s3" overflow="visible"><g transform="translate(-0.5 -0.5) scale(0.01)"><path fill="none" d="     M 62 16 Q 73 16 74 27 L 96 31 L 97 34 L 75 38     Q 87 53 70 52 Q 61 51 58 45 Q 56 58 55 68     Q 55 85 36 86 Q 14 86 12 64 Q 10 46 30 42     Q 45 39 50 33 Q 53 22 55 19 Q 57 16 62 16 Z" />
  <path fill="none" d="     M 21 56 Q 33 49 45 58 Q 39 71 26 71 Q 18 67 21 56 Z" />
  <path fill="none" d="     M 60 21 L 95 31 L 96 33.5 L 75 37 Q 64 34 59.5 29 Z" />
  <path fill="currentColor" d="     M 75 37.5 Q 87 53 70 51.5 Q 61.5 50.5 58.5 44.5 Q 66 40 75 37.5 Z" />
  <circle cx="64.5" cy="26" r="2.4" fill="none" />
</g></symbol><symbol id="motif-recraft-9b63c15fc649-s4" overflow="visible"><g transform="translate(-0.5 -0.5) scale(0.01)"><path fill="none" d="     M 62 16 Q 73 16 74 27 L 96 31 L 97 34 L 75 38     Q 87 53 70 52 Q 61 51 58 45 Q 56 58 55 68     Q 55 85 36 86 Q 14 86 12 64 Q 10 46 30 42     Q 45 39 50 33 Q 53 22 55 19 Q 57 16 62 16 Z" />
  <path fill="none" d="     M 21 56 Q 33 49 45 58 Q 39 71 26 71 Q 18 67 21 56 Z" />
  <path fill="none" d="     M 60 21 L 95 31 L 96 33.5 L 75 37 Q 64 34 59.5 29 Z" />
  <path fill="none" d="     M 75 37.5 Q 87 53 70 51.5 Q 61.5 50.5 58.5 44.5 Q 66 40 75 37.5 Z" />
  <circle cx="64.5" cy="26" r="2.4" fill="currentColor" />
</g></symbol><pattern id="tile" patternUnits="userSpaceOnUse" width="96" height="96"><rect x="0" y="0" width="96" height="96" fill="#0e3b46"/><use href="#motif-recraft-9b63c15fc649-s0" color="#f3ead7" transform="translate(0 0) rotate(0) scale(34)"/><use href="#motif-recraft-9b63c15fc649-s1" color="#5b7c99" transform="translate(0 0) rotate(0) scale(34)"/><use href="#motif-recraft-9b63c15fc649-s2" color="#e8943a" transform="translate(0 0) rotate(0) scale(34)"/><use href="#motif-recraft-9b63c15fc649-s3" color="#f2c14e" transform="translate(0 0) rotate(0) scale(34)"/><use href="#motif-recraft-9b63c15fc649-s4" color="#1a1a1a" transform="translate(0 0) rotate(0) scale(34)"/><use href="#motif-recraft-9b63c15fc649-s0" color="#f3ead7" transform="translate(0 96) rotate(0) scale(34)"/><use href="#motif-recraft-9b63c15fc649-s1" color="#5b7c99" transform="translate(0 96) rotate(0) scale(34)"/><use href="#motif-recraft-9b63c15fc649-s2" color="#e8943a" transform="translate(0 96) rotate(0) scale(34)"/><use href="#motif-recraft-9b63c15fc649-s3" color="#f2c14e" transform="translate(0 96) rotate(0) scale(34)"/><use href="#motif-recraft-9b63c15fc649-s4" color="#1a1a1a" transform="translate(0 96) rotate(0) scale(34)"/><use href="#motif-recraft-9b63c15fc649-s0" color="#f3ead7" transform="translate(96 0) rotate(0) scale(34)"/><use href="#motif-recraft-9b63c15fc649-s1" color="#5b7c99" transform="translate(96 0) rotate(0) scale(34)"/><use href="#motif-recraft-9b63c15fc649-s2" color="#e8943a" transform="translate(96 0) rotate(0) scale(34)"/><use href="#motif-recraft-9b63c15fc649-s3" color="#f2c14e" transform="translate(96 0) rotate(0) scale(34)"/><use href="#motif-recraft-9b63c15fc649-s4" color="#1a1a1a" transform="translate(96 0) rotate(0) scale(34)"/><use href="#motif-recraft-9b63c15fc649-s0" color="#f3ead7" transform="translate(96 96) rotate(0) scale(34)"/><use href="#motif-recraft-9b63c15fc649-s1" color="#5b7c99" transform="translate(96 96) rotate(0) scale(34)"/><use href="#motif-recraft-9b63c15fc649-s2" color="#e8943a" transform="translate(96 96) rotate(0) scale(34)"/><use href="#motif-recraft-9b63c15fc649-s3" color="#f2c14e" transform="translate(96 96) rotate(0) scale(34)"/><use href="#motif-recraft-9b63c15fc649-s4" color="#1a1a1a" transform="translate(96 96) rotate(0) scale(34)"/><use href="#motif-recraft-9b63c15fc649-s0" color="#f3ead7" transform="translate(0 48) rotate(0) scale(34)"/><use href="#motif-recraft-9b63c15fc649-s1" color="#5b7c99" transform="translate(0 48) rotate(0) scale(34)"/><use href="#motif-recraft-9b63c15fc649-s2" color="#e8943a" transform="translate(0 48) rotate(0) scale(34)"/><use href="#motif-recraft-9b63c15fc649-s3" color="#f2c14e" transform="translate(0 48) rotate(0) scale(34)"/><use href="#motif-recraft-9b63c15fc649-s4" color="#1a1a1a" transform="translate(0 48) rotate(0) scale(34)"/><use href="#motif-recraft-9b63c15fc649-s0" color="#f3ead7" transform="translate(96 48) rotate(0) scale(34)"/><use href="#motif-recraft-9b63c15fc649-s1" color="#5b7c99" transform="translate(96 48) rotate(0) scale(34)"/><use href="#motif-recraft-9b63c15fc649-s2" color="#e8943a" transform="translate(96 48) rotate(0) scale(34)"/><use href="#motif-recraft-9b63c15fc649-s3" color="#f2c14e" transform="translate(96 48) rotate(0) scale(34)"/><use href="#motif-recraft-9b63c15fc649-s4" color="#1a1a1a" transform="translate(96 48) rotate(0) scale(34)"/><use href="#motif-recraft-9b63c15fc649-s0" color="#f3ead7" transform="translate(48 24) rotate(0) scale(34)"/><use href="#motif-recraft-9b63c15fc649-s1" color="#5b7c99" transform="translate(48 24) rotate(0) scale(34)"/><use href="#motif-recraft-9b63c15fc649-s2" color="#e8943a" transform="translate(48 24) rotate(0) scale(34)"/><use href="#motif-recraft-9b63c15fc649-s3" color="#f2c14e" transform="translate(48 24) rotate(0) scale(34)"/><use href="#motif-recraft-9b63c15fc649-s4" color="#1a1a1a" transform="translate(48 24) rotate(0) scale(34)"/><use href="#motif-recraft-9b63c15fc649-s0" color="#f3ead7" transform="translate(48 72) rotate(0) scale(34)"/><use href="#motif-recraft-9b63c15fc649-s1" color="#5b7c99" transform="translate(48 72) rotate(0) scale(34)"/><use href="#motif-recraft-9b63c15fc649-s2" color="#e8943a" transform="translate(48 72) rotate(0) scale(34)"/><use href="#motif-recraft-9b63c15fc649-s3" color="#f2c14e" transform="translate(48 72) rotate(0) scale(34)"/><use href="#motif-recraft-9b63c15fc649-s4" color="#1a1a1a" transform="translate(48 72) rotate(0) scale(34)"/></pattern></defs><rect x="0" y="0" width="192.0" height="192.0" fill="url(#tile)"/></svg>