<svg xmlns="http://www.w3.org/2000/svg" width="96mm" height="96mm" viewBox="0 0 96 96"><defs><symbol id="motif-recraft-d88b532ed4c1" overflow="visible"><g transform="translate(-0.5 -0.5) scale(0.01)"><path fill="currentColor" d="     M 16 56 Q 14 40 26 34 L 20 18 L 40 34 Q 50 30 60 34 L 80 18 L 74 34     Q 86 40 84 56 Q 84 78 64 88 Q 50 94 36 88 Q 16 78 16 56 Z     M 34 52 a 4 4 0 1 0 8 0 a 4 4 0 1 0 -8 0 Z     M 58 52 a 4 4 0 1 0 8 0 a 4 4 0 1 0 -8 0 Z     M 30 68 a 20 14 0 1 0 40 0 a 20 14 0 1 0 -40 0 Z     M 40 68 a 3 6 0 1 1 6 0 a 3 6 0 1 1 -6 0 Z     M 54 68 a 3 6 0 1 1 6 0 a 3 6 0 1 1 -6 0 Z   " />
</g></symbol><pattern id="tile" patternUnits="userSpaceOnUse" width="96" height="96"><rect x="0" y="0" width="96" height="96" fill="#f3e3d3"/><g><line x1="-162.72" y1="103.04" x2="144.48" y2="-127.36" stroke="#e79aae" stroke-width="8"/><line x1="-151.2" y1="118.4" x2="156" y2="-112" stroke="#e79aae" stroke-width="8"/><line x1="-139.68" y1="133.76" x2="167.52" y2="-96.64" stroke="#e79aae" stroke-width="8"/><line x1="-128.16" y1="149.12" x2="179.04" y2="-81.28" stroke="#e79aae" stroke-width="8"/><line x1="-116.64" y1="164.48" x2="190.56" y2="-65.92" stroke="#e79aae" stroke-width="8"/><line x1="-105.12" y1="179.84" x2="202.08" y2="-50.56" stroke="#e79aae" stroke-width="8"/><line x1="-93.6" y1="195.2" x2="213.6" y2="-35.2" stroke="#e79aae" stroke-width="8"/><line x1="-82.08" y1="210.56" x2="225.12" y2="-19.84" stroke="#e79aae" stroke-width="8"/><line x1="-70.56" y1="225.92" x2="236.64" y2="-4.48" stroke="#e79aae" stroke-width="8"/></g><use href="#motif-recraft-d88b532ed4c1" color="#5b2a36" transform="translate(2.4 3.2) rotate(0) scale(16)"/><use href="#motif-recraft-d88b532ed4c1" color="#5b2a36" transform="translate(2.4 99.2) rotate(0) scale(16)"/><use href="#motif-recraft-d88b532ed4c1" color="#5b2a36" transform="translate(98.4 3.2) rotate(0) scale(16)"/><use href="#motif-recraft-d88b532ed4c1" color="#5b2a36" transform="translate(98.4 99.2) rotate(0) scale(16)"/><use href="#motif-recraft-d88b532ed4c1" color="#5b2a36" transform="translate(21.6 84.8) rotate(0) scale(16)"/><use href="#motif-recraft-d88b532ed4c1" color="#5b2a36" transform="translate(40.8 70.4) rotate(0) scale(16)"/><use href="#motif-recraft-d88b532ed4c1" color="#5b2a36" transform="translate(60 56) rotate(0) scale(16)"/><use href="#motif-recraft-d88b532ed4c1" color="#5b2a36" transform="translate(79.2 41.6) rotate(0) scale(16)"/><use href="#motif-recraft-d88b532ed4c1" color="#5b2a36" transform="translate(2.4 27.2) rotate(0) scale(16)"/><use href="#motif-recraft-d88b532ed4c1" color="#5b2a36" transform="translate(98.4 27.2) rotate(0) scale(16)"/><use href="#motif-recraft-d88b532ed4c1" color="#5b2a36" transform="translate(21.6 12.8) rotate(0) scale(16)"/><use href="#motif-recraft-d88b532ed4c1" color="#5b2a36" transform="translate(40.8 94.4) rotate(0) scale(16)"/><use href="#motif-recraft-d88b532ed4c1" color="#5b2a36" transform="translate(40.8 -1.6) rotate(0) scale(16)"/><use href="#motif-recraft-d88b532ed4c1" color="#5b2a36" transform="translate(60 80) rotate(0) scale(16)"/><use href="#motif-recraft-d88b532ed4c1" color="#5b2a36" transform="translate(79.2 65.6) rotate(0) scale(16)"/><use href="#motif-recraft-d88b532ed4c1" color="#5b2a36" transform="translate(2.4 51.2) rotate(0) scale(16)"/><use href="#motif-recraft-d88b532ed4c1" color="#5b2a36" transform="translate(98.4 51.2) rotate(0) scale(16)"/><use href="#motif-recraft-d88b532ed4c1" color="#5b2a36" transform="translate(21.6 36.8) rotate(0) scale(16)"/><use href="#motif-recraft-d88b532ed4c1" color="#5b2a36" transform="translate(40.8 22.4) rotate(0) scale(16)"/><use href="#motif-recraft-d88b532ed4c1" color="#5b2a36" transform="translate(60 8) rotate(0) scale(16)"/><use href="#motif-recraft-d88b532ed4c1" color="#5b2a36" transform="translate(79.2 89.6) rotate(0) scale(16)"/><use href="#motif-recraft-d88b532ed4c1" color="#5b2a36" transform="translate(79.2 -6.4) rotate(0) scale(16)"/><use href="#motif-recraft-d88b532ed4c1" color="#5b2a36" transform="translate(2.4 75.2) rotate(0) scale(16)"/><use href="#motif-recraft-d88b532ed4c1" color="#5b2a36" transform="translate(98.4 75.2) rotate(0) scale(16)"/><use href="#motif-recraft-d88b532ed4c1" color="#5b2a36" transform="translate(21.6 60.8) rotate(0) scale(16)"/><use href="#motif-recraft-d88b532ed4c1" color="#5b2a36" transform="translate(40.8 46.4) rotate(0) scale(16)"/><use href="#motif-recraft-d88b532ed4c1" color="#5b2a36" transform="translate(60 32) rotate(0) scale(16)"/><use href="#motif-recraft-d88b532ed4c1" color="#5b2a36" transform="translate(79.2 17.6) rotate(0) scale(16)"/></pattern></defs><rect x="0" y="0" width="96" height="96" fill="url(#tile)"/></svg>